<?xml version="1.0" encoding="UTF-8"?>
<svg width="512px" height="512px" viewBox="0 0 512 512" version="1.1" xmlns="http://www.w3.org/2000/svg">
    <defs>
        <linearGradient id="grad1" x1="0%" y1="0%" x2="100%" y2="100%">
            <stop offset="0%" style="stop-color:#1976d2;stop-opacity:1" />
            <stop offset="100%" style="stop-color:#42a5f5;stop-opacity:1" />
        </linearGradient>
    </defs>
    <g stroke="none" fill="none">
        <circle fill="white" cx="256" cy="256" r="256"/>
        <path d="M128,112 L384,112 C394,112 402,120 402,130 L402,382 C402,392 394,400 384,400 L128,400 C118,400 110,392 110,382 L110,130 C110,120 118,112 128,112 Z" 
              fill="url(#grad1)"/>
        <path d="M144,112 L144,400" 
              stroke="white" 
              stroke-width="8"
              opacity="0.5"/>
        <path d="M160,140 L352,140 M160,180 L352,180 M160,220 L352,220 M160,260 L352,260 M160,300 L352,300 M160,340 L280,340" 
              stroke="white" 
              stroke-width="4"
              stroke-linecap="round"
              opacity="0.3"/>
    </g>
</svg>