<?xml version="1.0" encoding="UTF-8"?>
<svg width="800px" height="800px" viewBox="0 0 800 800" version="1.1" xmlns="http://www.w3.org/2000/svg">
    <defs>
        <pattern id="cute-pattern" x="0" y="0" width="200" height="200" patternUnits="userSpaceOnUse">
            <!-- Coffee Cup -->
            <path d="M50,70 C50,60 60,50 70,50 L90,50 C100,50 110,60 110,70 L105,100 C105,110 95,120 80,120 C65,120 55,110 55,100 L50,70 Z M110,65 L120,65 C125,65 130,70 130,75 C130,80 125,85 120,85 L115,85" 
                  fill="none" 
                  stroke="currentColor" 
                  stroke-width="2"
                  opacity="0.15"/>
            
            <!-- Flower -->
            <path d="M180,80 C180,70 175,65 170,65 C165,65 160,70 160,80 C160,90 165,95 170,95 C175,95 180,90 180,80 Z M170,65 C170,60 165,55 160,55 C155,55 150,60 150,65 C150,70 155,75 160,75 C165,75 170,70 170,65 Z M170,95 C170,100 165,105 160,105 C155,105 150,100 150,95 C150,90 155,85 160,85 C165,85 170,90 170,95 Z M190,80 C190,75 185,70 180,70 C175,70 170,75 170,80 C170,85 175,90 180,90 C185,90 190,85 190,80 Z M150,80 C150,75 145,70 140,70 C135,70 130,75 130,80 C130,85 135,90 140,90 C145,90 150,85 150,80 Z" 
                  fill="none" 
                  stroke="currentColor" 
                  stroke-width="2"
                  opacity="0.15"/>

            <!-- Bird -->
            <path d="M60,180 C50,180 45,175 45,170 C45,165 50,160 60,160 L80,160 C90,160 95,170 90,175 L85,180 Z M80,160 C85,155 85,150 80,145 C75,140 70,140 65,145" 
                  fill="none" 
                  stroke="currentColor" 
                  stroke-width="2"
                  opacity="0.15"/>

            <!-- Pen -->
            <path d="M160,170 L180,150 L185,155 L165,175 L160,170 Z M180,150 L185,145 L190,150 L185,155 Z" 
                  fill="none" 
                  stroke="currentColor" 
                  stroke-width="2"
                  opacity="0.15"/>
        </pattern>
    </defs>
    <rect width="100%" height="100%" fill="url(#cute-pattern)"/>
</svg>